# xmcd
#
# Track frame offsets:
#	150
#	12234
#	27697
#	46434
#	67671
#	85619
#	96879
#	108204
#	120391
#	138383
#	152892
#	171546
#
# Disc length: 2544 seconds
#
# Revision: 1
# Processed by: cddbd v1.5.2PL0 Copyright (c) Steve Scherf et al.
# Submitted via: audiograbber 1.83.01
#
DISCID=9609ee0c
DTITLE=Modern Earl - Hunker Down
DYEAR=2005
DGENRE=Country Rock
TTITLE0=Hot Coals And Cold Beer
TTITLE1=Hunker Down
TTITLE2=All Night Long
TTITLE3=T For Texas
TTITLE4=Who Will Sing For Me
TTITLE5=Fast Train To Nowhere
TTITLE6=On The Road Again
TTITLE7=Denver
TTITLE8=Trigger Happy Sister
TTITLE9=Mess With Texas
TTITLE10=Shake The Ass For Jesus
TTITLE11=Alma Lee's Fried Chicken
EXTD=
EXTT0=
EXTT1=
EXTT2=
EXTT3=
EXTT4=
EXTT5=
EXTT6=
EXTT7=
EXTT8=
EXTT9=
EXTT10=
EXTT11=
PLAYORDER=
